<?xml version="1.0" encoding="utf-8" ?>
<svg xmlns="http://www.w3.org/2000/svg" xmlns:xlink="http://www.w3.org/1999/xlink" width="1024" height="1024" fill="#000000">
	<path d="M509.228 101.272C524.85 100.052 541.344 101.253 556.862 103.173C613.132 109.819 666.902 130.208 713.431 162.543C758.699 194.346 793.904 237.351 819.922 285.888C825.285 295.891 831.038 306.474 835.086 317.06C842.83 337.308 847.866 359.95 851.56 381.289C866.81 470.927 845.795 562.95 793.145 637.082C737.62 715.383 651.817 766.827 556.59 778.911C544.087 780.433 531.135 781.013 518.537 780.585C510.136 780.299 501.561 779.245 493.172 779.791C486.473 780.227 480.271 783.062 473.841 784.716C468.144 786.181 461.901 786.387 456.039 786.467C430.834 786.812 405.591 786.483 380.382 786.443C369.776 786.427 354.953 785.3 344.768 787.122C344.576 787.156 344.384 787.196 344.193 787.233C332.157 805.348 317.707 822.287 300.473 835.677C271.883 857.887 237.153 869.252 202.121 876.473C192.823 878.389 182.21 881.059 172.722 879.692C168.551 879.09 163.932 877.424 161.414 873.835C158.49 869.668 158.585 862.74 160.781 858.289C163.588 852.602 169.618 849.314 174.158 845.143C190.142 830.459 197.425 807.956 201.197 787.225C194.008 785.41 186.955 784.143 180.08 781.18C162.892 773.943 149.346 760.083 142.506 742.733C140.141 736.769 138.886 730.635 138.434 724.246C137.647 713.112 138.11 701.786 138.139 690.626L138.17 636.55L138.074 598.14C137.936 586.602 137.359 575.226 138.479 563.705C139.042 557.918 140.864 552.399 143.198 547.099C151.498 528.245 166.599 518.165 185.305 510.823C181.21 494.412 179.078 476.252 178.35 459.4C174.008 367.618 206.567 277.914 268.768 210.284C320.277 153.981 389.444 116.921 464.853 105.223C479.515 102.944 494.417 101.903 509.228 101.272ZM467.971 136.306C450.872 162.114 456.348 194.977 440.4 220.999C430.509 237.137 414.932 251.599 399.439 262.354C393.015 266.814 381.454 271.502 377.141 277.869C373.705 282.941 374.94 309.078 373.983 317.316C373.184 324.187 371.626 330.788 368.453 336.964C363.868 345.889 356.897 353.325 349.194 359.651C339.75 367.406 324.665 374.162 320.962 386.757C320.049 389.859 320.01 393.091 320.706 396.242C322.552 404.612 327.852 414.006 334.768 419.195C351.385 416.808 370.147 414.421 384.467 425.254C395.295 433.446 400.163 446.15 401.84 459.263C403.944 475.724 402.276 492.066 403.091 508.53C415.765 508.912 428.501 508.788 441.183 508.836C466.523 508.933 487.781 509.519 506.367 529.217C514.517 537.836 520.181 548.502 522.756 560.082C525.665 573.349 525.003 587.541 524.97 601.064L524.894 642.199L525.016 694.592C525.041 703.749 525.339 713.002 525.002 722.151C524.643 731.904 521.853 740.463 518.399 749.493C531.447 750.652 545.432 748.839 558.35 747.055C615.603 739.149 664.912 717.498 709.833 681.369C756.596 642.518 794.24 588.554 812.641 530.445C816.668 517.727 820.228 504.064 821.401 490.742C822.332 480.17 819.949 471.618 812.986 463.5C802.118 450.828 785.774 444.784 774.795 432.321C761.735 417.497 756.974 397.049 741.415 384.147C723.698 369.455 696.664 368.105 683.609 347.466C671.702 328.642 676.918 297.333 647.412 295.177C626.851 293.675 610.497 307.488 593.033 315.934C572.465 325.881 549.426 329.922 532.673 311.019C518.092 294.567 514.819 270.985 516.309 249.787C518.098 224.324 528.893 199.3 548.361 182.478C571.975 162.072 604.362 160.356 633.705 155.576C626.525 151.646 618.401 149.519 610.578 147.232C580.253 138.368 548.916 132.263 517.223 132.356C512.576 132.37 507.411 132.071 502.83 132.712C491.223 133.513 479.402 133.984 467.971 136.306ZM209.69 419.848C208.303 445.635 209.594 467.784 214.834 493.165C215.654 497.138 216.324 503.864 219.102 506.841C220.96 508.832 269.954 508.267 276.276 507.981C277.848 498.985 277.129 489.41 276.87 480.31C267.522 474.867 258.41 469.745 250.558 462.187C237.483 449.603 225.496 428 209.69 419.848ZM678.282 179.125C667.358 181.452 656.566 183.879 645.495 185.461C616.143 189.655 576.144 190.465 558.121 217.997C548.029 233.413 544.521 254.501 548.289 272.465C549.554 278.499 551.776 283.675 554.873 288.977C560.139 291.915 563.952 292.691 569.959 291.005C581.877 287.66 592.68 279.793 603.577 274.095C625.228 262.775 653.034 258.802 675.251 270.978C690.528 279.351 699.163 293.976 703.803 310.312C707.139 322.052 709.156 331.865 720.715 338.317C729.815 343.397 740.525 345.727 749.262 351.407C764.575 361.677 776.656 374.28 785.374 390.619C788.739 396.925 791.553 403.875 796.214 409.359C804.347 418.926 815.713 425.727 825.946 432.856C824.313 418.139 824.537 403.422 821.948 388.754C809.099 314.789 769.806 248.016 711.387 200.867C704.651 195.479 686.031 179.042 678.282 179.125ZM427.114 146.574C350.062 170.393 285.539 223.686 247.593 294.851C236.725 315.185 228.703 336.856 222.164 358.923C219.837 366.776 218.106 374.862 215.64 382.655C227.433 391.042 239.099 400.368 248.531 411.407C256.438 420.659 263.115 431.282 272.434 439.226C281.184 446.685 293.62 448.436 301.884 456.276C305.712 459.908 307.129 463.633 307.994 468.676C310.035 480.579 308.854 493.599 308.474 505.626C308.714 506.991 308.6 507.383 309.604 508.309C317.853 509.326 326.93 508.421 335.27 508.269C347.821 508.093 360.374 508.003 372.927 507.999C373.337 494.65 376.018 461.362 366.483 451.726C363.448 448.659 359.342 448.336 355.236 448.448C350.571 448.576 345.885 449.439 341.234 449.853C328.803 450.962 318.458 447.771 309.267 439.204C296.691 427.482 288.593 408.069 288.139 390.968C287.781 377.475 294.21 365.207 303.404 355.673C320.182 338.274 344.128 333.513 343.932 304.496C343.818 287.564 340.226 269.044 353.337 255.724C361.032 247.907 371.642 242.983 380.674 236.856C397.945 225.14 413.834 209.96 420.402 189.611C422.706 182.475 423.791 175.069 424.971 167.688C425.921 161.75 427.81 155.093 428.004 149.156C428.03 148.382 427.913 147.7 427.699 146.96L427.114 146.574ZM215.924 840.287C219.124 840.853 224.599 838.419 227.692 837.351C245.558 831.18 262.365 824.277 277.94 813.358C287.676 806.533 296.627 797.944 304.222 788.819C306.925 785.572 309.58 782.193 311.876 778.644C317.057 770.635 321.07 760.833 330.492 756.985C339.989 753.105 350.586 755.215 360.491 755.438C379.219 755.859 398.024 755.467 416.761 755.503C444.183 755.556 486.769 762.773 493.111 725.699C494.931 715.056 494.205 703.637 494.199 692.865L494.163 643.948L494.243 599.726C494.257 591.23 494.808 582.225 493.743 573.802C492.872 566.914 490.669 560.275 486.63 554.579C480.945 546.56 472.176 541.833 462.582 540.274C452.694 538.668 442.081 539.537 432.071 539.75C376.909 540.682 321.591 539.914 266.413 539.967L225.777 539.905C217.461 539.867 208.774 539.194 200.539 540.446C192.324 541.695 184.506 544.923 178.67 550.98C173.866 555.966 170.968 562.359 169.809 569.145C168.49 576.872 168.847 584.881 168.914 592.691L169.097 621.245C169.089 649.042 168.141 676.871 168.898 704.659C169.3 719.444 169.135 734.608 180.706 745.572C185.529 750.095 191.521 753.179 198.005 754.473C212.641 757.524 233.38 752.204 234.082 773.912C234.806 796.3 225.965 820.526 215.924 840.287Z"/>
	<path d="M588.331 373.209C606.544 372.564 623.353 378.468 638.588 388.062C643.32 391.042 647.697 394.604 652.569 397.345L653.151 397.666C661.386 396.745 669.696 395.525 677.991 396.407C697.193 398.448 709.588 411.066 718.847 427.081C723.359 434.885 727.258 443.107 732.745 450.299C741.835 462.214 753.555 471.95 763.003 483.611C771.845 494.524 777.205 506.789 775.671 521.027C773.705 539.284 760.766 550.331 745.694 559.051C739.115 562.857 732.19 566.228 727.372 572.308C718.498 583.505 718.293 600.199 715.941 613.657C710.674 643.806 695.513 672.806 671.51 692.118C664.348 697.681 655.235 700.715 646.232 701.455C606.89 704.691 598.651 663.441 594.388 633.203C592.364 618.847 590.988 604.461 589.608 590.033C588.219 575.503 588.228 557.662 579.7 545.207C570.999 532.5 551.945 530.071 538.68 524.53C530.714 521.203 522.906 516.483 516.325 510.891C501.556 498.344 493.079 479.128 491.693 459.996C490.259 440.201 495.775 420.508 508.971 405.464C528.907 382.736 559.22 375.068 588.331 373.209ZM666.881 653.009C673.916 643.071 679.226 632.019 682.589 620.317C688.87 598.2 689.254 574.07 701.519 553.949C709.669 540.577 748.113 528.268 745.871 515.27C743.593 502.067 719.46 483.685 710.458 472.987C706.729 468.555 703.302 463.325 700.466 458.272C695.375 449.202 691.741 436.58 682.753 430.591C672.096 423.49 659.283 432.081 647.84 430.214C629.738 427.262 621.847 408.197 598.041 405.215C594.648 404.79 590.662 404.258 587.263 404.708C567.093 406.725 544.562 410.642 531.026 427.337C523.738 436.441 520.397 448.084 521.749 459.668C522.996 470.693 528.603 480.761 537.319 487.627C545.676 494.153 555.47 497.422 565.276 501.025C604.019 515.259 613.357 530.327 618.57 570.503C621.242 591.094 622.67 657.015 637.437 668.962C639.612 670.722 642.252 671.387 645.012 670.989C653.313 669.794 661.362 660.687 666.036 654.263C666.333 653.855 666.611 653.434 666.881 653.009Z"/>
	<path d="M229.858 590.621C241.586 589.781 253.547 590.317 265.308 590.348L325.786 590.449L390.87 590.461C403.163 590.42 415.688 589.862 427.955 590.508C432.241 590.734 437.191 590.777 440.943 593.094C444.25 595.129 446.587 598.422 447.417 602.215C448.39 606.861 447.674 612.046 444.931 615.98C442.371 619.65 438.832 621.128 434.564 621.885C422.019 623.651 406.244 622.465 393.479 622.148C380.28 621.82 367.046 621.985 353.842 621.979C333.537 621.97 313.187 621.704 292.886 622.062C273.386 622.405 253.12 623.431 233.678 622.497C229.67 622.305 225.596 621.721 222.098 619.612C219.095 617.801 216.947 615.041 216.155 611.607C215.189 607.422 215.937 600.788 218.309 597.121C220.942 593.05 225.421 591.717 229.858 590.621Z"/>
	<path d="M240.697 667.28C255.126 666.502 269.744 666.962 284.196 666.989L356.51 667.174C370.175 667.282 383.841 667.304 397.507 667.241C409.301 667.125 421.145 666.547 432.907 667.721C436.508 668.08 440.483 669.098 443.203 671.607C446.26 674.427 447.672 678.744 447.668 682.827C447.664 687.167 445.962 691.674 442.799 694.696C437.918 699.359 429.892 698.94 423.625 698.963L297.155 698.725L258.201 698.943C249.577 698.996 240.828 699.335 232.236 698.521C227.952 698.115 224.087 697.713 220.745 694.687C217.809 692.029 216.278 688.213 216.085 684.299C215.881 680.154 216.857 675.479 219.768 672.368C225.017 666.757 233.656 667.355 240.697 667.28Z"/>
</svg>